<svg width="242" height="135" viewBox="0 0 242 135" fill="none" xmlns="http://www.w3.org/2000/svg">
<g clip-path="url(#clip0_112_64)">
<path d="M102.269 84.1214V132.776H81.2552V2.30671C83.0686 2.0667 84.7486 1.65336 86.442 1.64003C95.2688 1.58669 104.096 1.46669 112.922 1.6667C131.496 2.09337 142.283 13.1202 142.496 31.7205C142.59 39.4273 142.616 47.1341 142.496 54.8409C142.216 72.4012 131.816 83.1347 114.189 84.0814C110.696 84.2681 107.189 84.108 102.282 84.108L102.269 84.1214ZM102.896 64.2944C106.376 64.2944 108.989 64.4011 111.602 64.2677C117.483 63.9877 120.403 61.7077 120.643 55.9876C121.016 47.2141 120.989 38.414 120.603 29.6405C120.363 24.1604 117.616 21.8404 112.122 21.507C109.162 21.3204 106.176 21.7204 102.909 21.8804V64.2944H102.896Z" fill="white"/>
<path d="M148.443 93.2149H168.723C168.723 97.2549 168.563 100.935 168.763 104.588C169.15 111.722 172.457 114.869 179.057 114.682C185.177 114.509 188.07 111.242 188.617 104.402C189.404 94.6682 184.497 87.5081 178.123 81.0947C173.47 76.4013 168.377 72.1345 163.67 67.4811C150.55 54.5209 145.536 39.094 150.043 21.0003C152.83 9.84016 160.123 2.92005 171.363 0.906681C183.15 -1.21335 194.684 -0.120003 203.03 9.62682C209.671 17.3736 210.737 27.0138 209.857 37.4673H190.23C190.017 34.8006 189.897 32.0405 189.564 29.3071C188.79 22.7737 185.897 20.147 179.697 20.2403C173.577 20.3337 170.87 23.1337 170.27 29.7605C169.59 37.2406 171.79 43.8274 176.87 49.2008C183.377 56.0809 190.337 62.521 196.977 69.2811C209.524 82.068 212.871 97.3216 208.657 114.415C206.164 124.535 199.59 131.202 189.457 133.256C183.523 134.456 177.097 134.736 171.123 133.856C159.83 132.189 152.51 125.242 149.63 114.069C147.923 107.442 147.203 100.708 148.416 93.2149H148.443Z" fill="white"/>
<path d="M47.2679 132.722H25.9476C25.7742 129.709 25.3209 127.109 25.5209 124.562C27.3743 100.002 23.4409 76.4279 14.9874 53.2809C9.61398 38.614 5.85392 23.3604 1.42718 8.36014C0.880503 6.52011 0.560497 4.61341 0.000488281 2.1067H22.2142C24.6009 11.2002 26.9609 20.307 29.3743 29.4138C31.7743 38.4673 34.2411 47.5074 36.6811 56.5476C37.2144 56.5609 37.7344 56.5743 38.2678 56.5876C43.1079 38.454 47.9479 20.3337 52.8414 2.00003H72.9083C72.4417 4.37341 72.215 6.2801 71.6817 8.09347C64.2415 33.2405 56.6681 58.3343 49.3746 83.5214C48.1079 87.8948 47.5079 92.5615 47.3613 97.1216C47.0546 106.375 47.2679 115.642 47.2679 124.895C47.2679 127.269 47.2679 129.655 47.2679 132.722Z" fill="white"/>
<path d="M222.057 132.336V113.589H241.298V132.336H222.057Z" fill="#00BCD4"/>
</g>
<defs>
<clipPath id="clip0_112_64">
<rect width="241.285" height="134.362" fill="white"/>
</clipPath>
</defs>
</svg>
